<!DOCTYPE svg PUBLIC "-//W3C//DTD SVG 1.1//EN" "http://www.w3.org/Graphics/SVG/1.1/DTD/svg11.dtd">
<!-- Uploaded to: SVG Repo, www.svgrepo.com, Transformed by: SVG Repo Mixer Tools -->
<svg fill="#EF1459" height="64px" width="64px" version="1.1" id="Layer_1" xmlns="http://www.w3.org/2000/svg" xmlns:xlink="http://www.w3.org/1999/xlink" viewBox="0 0 512.001 512.001" xml:space="preserve" stroke="#EF1459">
<g id="SVGRepo_bgCarrier" stroke-width="0"/>
<g id="SVGRepo_tracerCarrier" stroke-linecap="round" stroke-linejoin="round"/>
<g id="SVGRepo_iconCarrier"> <g> <g> <path d="M501.533,450.097l-33.38-33.38c-6.521-6.521-17.087-6.521-23.609,0c-6.521,6.516-6.521,17.092,0,23.609l4.892,4.892 H129.349l4.892-4.892c6.521-6.516,6.521-17.092,0-23.609c-6.521-6.521-17.087-6.521-23.609,0l-33.38,33.38 c-3.275,3.269-4.903,7.73-4.903,11.816c0,4.174,1.714,8.633,4.903,11.816l33.38,33.38c6.522,6.522,17.086,6.522,23.609,0 c6.521-6.516,6.521-17.092,0-23.609l-4.892-4.892h320.087l-4.892,4.892c-6.521,6.516-6.521,17.092,0,23.609 c6.522,6.522,17.086,6.522,23.609,0l33.38-33.38c3.27-3.262,4.903-7.721,4.903-11.816 C506.436,457.629,504.724,453.28,501.533,450.097z"/> </g> </g> <g> <g> <path d="M77.241,349.935l-4.892,4.891V57l4.892,4.892c6.522,6.522,17.086,6.522,23.609,0c6.522-6.522,6.522-17.086,0-23.609 L67.458,4.892c-6.521-6.521-17.087-6.521-23.609,0L10.458,38.283c-6.522,6.522-6.522,17.086,0,23.609 c6.521,6.521,17.087,6.521,23.609,0L38.958,57v297.826l-4.892-4.892c-6.521-6.521-17.087-6.521-23.609,0 c-6.522,6.522-6.522,17.086,0,23.609l33.391,33.391c6.522,6.522,17.086,6.522,23.609,0l33.391-33.391 c6.522-6.521,6.522-17.086,0.001-23.608C94.328,343.414,83.762,343.414,77.241,349.935z"/> </g> </g> <g> <g> <path d="M422.958,133.565h83.478V16.696C506.436,7.473,498.957,0,489.74,0H261.566v133.565h83.478 c9.217,0,16.696,7.473,16.696,16.696c0,9.223-7.479,16.696-16.696,16.696h-83.478v50.087c0,9.223-7.479,16.696-16.696,16.696 s-16.696-7.473-16.696-16.696V0h-72.348c-9.217,0-16.696,7.473-16.696,16.696v345.043c0,9.223,7.479,16.696,16.696,16.696h72.348 v-83.478c0-9.223,7.479-16.696,16.696-16.696s16.696,7.473,16.696,16.696v83.478H489.74c9.217,0,16.696-7.473,16.696-16.696 V166.957h-83.478c-9.217,0-16.696-7.473-16.696-16.696S413.74,133.565,422.958,133.565z"/> </g> </g> </g>
</svg>